<svg xmlns="http://www.w3.org/2000/svg" xmlns:xlink="http://www.w3.org/1999/xlink" width="500" zoomAndPan="magnify" viewBox="0 0 375 89.999999" height="120" preserveAspectRatio="xMidYMid meet" version="1.0"><defs><g/></defs><g fill="#fe428e" fill-opacity="1"><g transform="translate(3.972658, 58.499999)"><g><path d="M 18.09375 -7.484375 L 6.140625 -7.484375 L 3.671875 0 L 1.21875 0 L 10.5 -28.03125 L 13.953125 -28.03125 L 23.25 0 L 20.5625 0 Z M 7.015625 -9.859375 L 17.234375 -9.859375 L 12.15625 -25.59375 Z M 7.015625 -9.859375 "/></g></g></g><g fill="#fe428e" fill-opacity="1"><g transform="translate(28.441487, 58.499999)"><g><path d="M 4.46875 0 L 4.46875 -21.421875 L 6.59375 -21.421875 L 6.796875 -18.296875 C 7.640625 -19.410156 8.75 -20.273438 10.125 -20.890625 C 11.507812 -21.503906 12.800781 -21.8125 14 -21.8125 C 16.1875 -21.8125 17.742188 -21.25 18.671875 -20.125 C 19.609375 -19.007812 20.078125 -17.46875 20.078125 -15.5 L 20.078125 0 L 17.546875 0 L 17.546875 -12.796875 C 17.546875 -14.421875 17.457031 -15.742188 17.28125 -16.765625 C 17.101562 -17.785156 16.722656 -18.53125 16.140625 -19 C 15.554688 -19.46875 14.632812 -19.703125 13.375 -19.703125 C 12.425781 -19.703125 11.53125 -19.492188 10.6875 -19.078125 C 9.851562 -18.660156 9.117188 -18.148438 8.484375 -17.546875 C 7.859375 -16.941406 7.363281 -16.351562 7 -15.78125 L 7 0 Z M 4.46875 0 "/></g></g></g><g fill="#fe428e" fill-opacity="1"><g transform="translate(52.910316, 58.499999)"><g><path d="M 19.015625 -4.21875 C 19.015625 -3.351562 19.160156 -2.71875 19.453125 -2.3125 C 19.753906 -1.914062 20.21875 -1.617188 20.84375 -1.421875 L 20.15625 0.421875 C 19.34375 0.304688 18.613281 0.0078125 17.96875 -0.46875 C 17.332031 -0.945312 16.882812 -1.675781 16.625 -2.65625 C 15.875 -1.65625 14.9375 -0.894531 13.8125 -0.375 C 12.695312 0.144531 11.429688 0.40625 10.015625 0.40625 C 7.890625 0.40625 6.222656 -0.191406 5.015625 -1.390625 C 3.804688 -2.585938 3.203125 -4.1875 3.203125 -6.1875 C 3.203125 -8.351562 4.046875 -10.015625 5.734375 -11.171875 C 7.429688 -12.328125 9.898438 -12.90625 13.140625 -12.90625 L 16.375 -12.90625 L 16.375 -15 C 16.375 -16.664062 15.894531 -17.832031 14.9375 -18.5 C 13.976562 -19.175781 12.671875 -19.515625 11.015625 -19.515625 C 10.296875 -19.515625 9.476562 -19.429688 8.5625 -19.265625 C 7.65625 -19.109375 6.644531 -18.832031 5.53125 -18.4375 L 4.796875 -20.515625 C 6.085938 -20.992188 7.257812 -21.328125 8.3125 -21.515625 C 9.363281 -21.710938 10.382812 -21.8125 11.375 -21.8125 C 13.894531 -21.8125 15.796875 -21.191406 17.078125 -19.953125 C 18.367188 -18.722656 19.015625 -17.097656 19.015625 -15.078125 Z M 10.5 -1.609375 C 11.675781 -1.609375 12.769531 -1.894531 13.78125 -2.46875 C 14.800781 -3.039062 15.664062 -3.835938 16.375 -4.859375 L 16.375 -10.96875 L 12.828125 -10.96875 C 10.285156 -10.96875 8.507812 -10.519531 7.5 -9.625 C 6.5 -8.738281 6 -7.5625 6 -6.09375 C 6 -4.613281 6.363281 -3.492188 7.09375 -2.734375 C 7.832031 -1.984375 8.96875 -1.609375 10.5 -1.609375 Z M 10.5 -1.609375 "/></g></g></g><g fill="#fe428e" fill-opacity="1"><g transform="translate(77.379145, 58.499999)"><g/></g></g><g fill="#fe428e" fill-opacity="1"><g transform="translate(101.847974, 58.499999)"><g><path d="M 6.03125 0 L 6.03125 -28.03125 L 8.65625 -28.03125 L 8.65625 -2.53125 L 21.640625 -2.53125 L 21.3125 0 Z M 6.03125 0 "/></g></g></g><g fill="#fe428e" fill-opacity="1"><g transform="translate(126.316803, 58.499999)"><g><path d="M 7 -21.421875 L 7 -6.09375 C 7 -4.570312 7.320312 -3.460938 7.96875 -2.765625 C 8.613281 -2.066406 9.632812 -1.71875 11.03125 -1.71875 C 12.363281 -1.71875 13.613281 -2.09375 14.78125 -2.84375 C 15.957031 -3.601562 16.859375 -4.472656 17.484375 -5.453125 L 17.484375 -21.421875 L 20.015625 -21.421875 L 20.015625 0 L 17.890625 0 L 17.609375 -3 C 16.734375 -1.90625 15.671875 -1.0625 14.421875 -0.46875 C 13.171875 0.113281 11.921875 0.40625 10.671875 0.40625 C 8.597656 0.40625 7.046875 -0.128906 6.015625 -1.203125 C 4.984375 -2.285156 4.46875 -3.816406 4.46875 -5.796875 L 4.46875 -21.421875 Z M 7 -21.421875 "/></g></g></g><g fill="#fe428e" fill-opacity="1"><g transform="translate(150.785632, 58.499999)"><g><path d="M 14.640625 -21.421875 L 14.640625 -2.203125 L 20.875 -2.203125 L 20.875 0 L 5.34375 0 L 5.34375 -2.203125 L 12.109375 -2.203125 L 12.109375 -19.21875 L 5.546875 -19.21875 L 5.546875 -21.421875 Z M 15.828125 -32.046875 L 17.125 -29.671875 L 8.9375 -26.3125 L 8.078125 -27.734375 Z M 15.828125 -32.046875 "/></g></g></g><g fill="#fe428e" fill-opacity="1"><g transform="translate(175.254461, 58.499999)"><g><path d="M 11.359375 -1.890625 C 13.179688 -1.890625 14.613281 -2.238281 15.65625 -2.9375 C 16.695312 -3.644531 17.21875 -4.570312 17.21875 -5.71875 C 17.21875 -6.414062 17.101562 -7.023438 16.875 -7.546875 C 16.65625 -8.078125 16.171875 -8.550781 15.421875 -8.96875 C 14.679688 -9.382812 13.546875 -9.773438 12.015625 -10.140625 C 10.472656 -10.515625 9.140625 -10.929688 8.015625 -11.390625 C 6.898438 -11.859375 6.035156 -12.46875 5.421875 -13.21875 C 4.816406 -13.96875 4.515625 -14.960938 4.515625 -16.203125 C 4.515625 -17.378906 4.847656 -18.382812 5.515625 -19.21875 C 6.191406 -20.0625 7.117188 -20.703125 8.296875 -21.140625 C 9.472656 -21.585938 10.800781 -21.8125 12.28125 -21.8125 C 13.945312 -21.8125 15.398438 -21.582031 16.640625 -21.125 C 17.890625 -20.675781 18.9375 -20.132812 19.78125 -19.5 L 18.609375 -17.625 C 17.816406 -18.175781 16.9375 -18.632812 15.96875 -19 C 15.007812 -19.375 13.785156 -19.5625 12.296875 -19.5625 C 10.410156 -19.5625 9.085938 -19.257812 8.328125 -18.65625 C 7.566406 -18.0625 7.1875 -17.3125 7.1875 -16.40625 C 7.1875 -15.695312 7.367188 -15.113281 7.734375 -14.65625 C 8.109375 -14.195312 8.722656 -13.796875 9.578125 -13.453125 C 10.441406 -13.109375 11.601562 -12.738281 13.0625 -12.34375 C 14.457031 -11.976562 15.675781 -11.535156 16.71875 -11.015625 C 17.769531 -10.492188 18.585938 -9.816406 19.171875 -8.984375 C 19.753906 -8.160156 20.046875 -7.085938 20.046875 -5.765625 C 20.046875 -4.265625 19.617188 -3.0625 18.765625 -2.15625 C 17.921875 -1.25 16.832031 -0.59375 15.5 -0.1875 C 14.164062 0.207031 12.78125 0.40625 11.34375 0.40625 C 9.445312 0.40625 7.847656 0.128906 6.546875 -0.421875 C 5.253906 -0.984375 4.179688 -1.640625 3.328125 -2.390625 L 4.890625 -4.25 C 5.734375 -3.539062 6.707031 -2.96875 7.8125 -2.53125 C 8.914062 -2.101562 10.097656 -1.890625 11.359375 -1.890625 Z M 11.359375 -1.890625 "/></g></g></g><g fill="#fe428e" fill-opacity="1"><g transform="translate(199.72329, 58.499999)"><g><path d="M 19.015625 -4.21875 C 19.015625 -3.351562 19.160156 -2.71875 19.453125 -2.3125 C 19.753906 -1.914062 20.21875 -1.617188 20.84375 -1.421875 L 20.15625 0.421875 C 19.34375 0.304688 18.613281 0.0078125 17.96875 -0.46875 C 17.332031 -0.945312 16.882812 -1.675781 16.625 -2.65625 C 15.875 -1.65625 14.9375 -0.894531 13.8125 -0.375 C 12.695312 0.144531 11.429688 0.40625 10.015625 0.40625 C 7.890625 0.40625 6.222656 -0.191406 5.015625 -1.390625 C 3.804688 -2.585938 3.203125 -4.1875 3.203125 -6.1875 C 3.203125 -8.351562 4.046875 -10.015625 5.734375 -11.171875 C 7.429688 -12.328125 9.898438 -12.90625 13.140625 -12.90625 L 16.375 -12.90625 L 16.375 -15 C 16.375 -16.664062 15.894531 -17.832031 14.9375 -18.5 C 13.976562 -19.175781 12.671875 -19.515625 11.015625 -19.515625 C 10.296875 -19.515625 9.476562 -19.429688 8.5625 -19.265625 C 7.65625 -19.109375 6.644531 -18.832031 5.53125 -18.4375 L 4.796875 -20.515625 C 6.085938 -20.992188 7.257812 -21.328125 8.3125 -21.515625 C 9.363281 -21.710938 10.382812 -21.8125 11.375 -21.8125 C 13.894531 -21.8125 15.796875 -21.191406 17.078125 -19.953125 C 18.367188 -18.722656 19.015625 -17.097656 19.015625 -15.078125 Z M 10.5 -1.609375 C 11.675781 -1.609375 12.769531 -1.894531 13.78125 -2.46875 C 14.800781 -3.039062 15.664062 -3.835938 16.375 -4.859375 L 16.375 -10.96875 L 12.828125 -10.96875 C 10.285156 -10.96875 8.507812 -10.519531 7.5 -9.625 C 6.5 -8.738281 6 -7.5625 6 -6.09375 C 6 -4.613281 6.363281 -3.492188 7.09375 -2.734375 C 7.832031 -1.984375 8.96875 -1.609375 10.5 -1.609375 Z M 10.5 -1.609375 "/></g></g></g><g fill="#fe428e" fill-opacity="1"><g transform="translate(224.19213, 58.499999)"><g/></g></g><g fill="#fe428e" fill-opacity="1"><g transform="translate(248.66097, 58.499999)"><g><path d="M 8.125 -25.703125 L 8.125 -15.4375 L 18.71875 -15.4375 L 18.71875 -13.0625 L 8.125 -13.0625 L 8.125 -2.265625 L 21.1875 -2.265625 L 21.1875 0 L 5.5 0 L 5.5 -28.03125 L 20.71875 -28.03125 L 20.375 -25.703125 Z M 8.125 -25.703125 "/></g></g></g><g fill="#fe428e" fill-opacity="1"><g transform="translate(273.12981, 58.499999)"><g><path d="M 11.953125 -30.09375 L 11.953125 -4.859375 C 11.953125 -3.742188 12.304688 -2.953125 13.015625 -2.484375 C 13.734375 -2.023438 14.640625 -1.796875 15.734375 -1.796875 C 16.410156 -1.796875 17.050781 -1.863281 17.65625 -2 C 18.257812 -2.132812 18.875 -2.320312 19.5 -2.5625 L 20.234375 -0.609375 C 19.703125 -0.347656 19.023438 -0.113281 18.203125 0.09375 C 17.390625 0.300781 16.484375 0.40625 15.484375 0.40625 C 13.796875 0.40625 12.363281 -0.0507812 11.1875 -0.96875 C 10.007812 -1.882812 9.421875 -3.179688 9.421875 -4.859375 L 9.421875 -27.890625 L 2.78125 -27.890625 L 2.78125 -30.09375 Z M 11.953125 -30.09375 "/></g></g></g><g fill="#fe428e" fill-opacity="1"><g transform="translate(297.598651, 58.499999)"><g><path d="M 14.640625 -21.421875 L 14.640625 -2.203125 L 20.875 -2.203125 L 20.875 0 L 5.34375 0 L 5.34375 -2.203125 L 12.109375 -2.203125 L 12.109375 -19.21875 L 5.546875 -19.21875 L 5.546875 -21.421875 Z M 12.265625 -31.109375 C 12.910156 -31.109375 13.421875 -30.910156 13.796875 -30.515625 C 14.179688 -30.117188 14.375 -29.644531 14.375 -29.09375 C 14.375 -28.488281 14.179688 -27.984375 13.796875 -27.578125 C 13.421875 -27.179688 12.910156 -26.984375 12.265625 -26.984375 C 11.648438 -26.984375 11.148438 -27.179688 10.765625 -27.578125 C 10.390625 -27.984375 10.203125 -28.488281 10.203125 -29.09375 C 10.203125 -29.644531 10.390625 -30.117188 10.765625 -30.515625 C 11.148438 -30.910156 11.648438 -31.109375 12.265625 -31.109375 Z M 12.265625 -31.109375 "/></g></g></g><g fill="#fe428e" fill-opacity="1"><g transform="translate(322.067491, 58.499999)"><g><path d="M 19.015625 -4.21875 C 19.015625 -3.351562 19.160156 -2.71875 19.453125 -2.3125 C 19.753906 -1.914062 20.21875 -1.617188 20.84375 -1.421875 L 20.15625 0.421875 C 19.34375 0.304688 18.613281 0.0078125 17.96875 -0.46875 C 17.332031 -0.945312 16.882812 -1.675781 16.625 -2.65625 C 15.875 -1.65625 14.9375 -0.894531 13.8125 -0.375 C 12.695312 0.144531 11.429688 0.40625 10.015625 0.40625 C 7.890625 0.40625 6.222656 -0.191406 5.015625 -1.390625 C 3.804688 -2.585938 3.203125 -4.1875 3.203125 -6.1875 C 3.203125 -8.351562 4.046875 -10.015625 5.734375 -11.171875 C 7.429688 -12.328125 9.898438 -12.90625 13.140625 -12.90625 L 16.375 -12.90625 L 16.375 -15 C 16.375 -16.664062 15.894531 -17.832031 14.9375 -18.5 C 13.976562 -19.175781 12.671875 -19.515625 11.015625 -19.515625 C 10.296875 -19.515625 9.476562 -19.429688 8.5625 -19.265625 C 7.65625 -19.109375 6.644531 -18.832031 5.53125 -18.4375 L 4.796875 -20.515625 C 6.085938 -20.992188 7.257812 -21.328125 8.3125 -21.515625 C 9.363281 -21.710938 10.382812 -21.8125 11.375 -21.8125 C 13.894531 -21.8125 15.796875 -21.191406 17.078125 -19.953125 C 18.367188 -18.722656 19.015625 -17.097656 19.015625 -15.078125 Z M 10.5 -1.609375 C 11.675781 -1.609375 12.769531 -1.894531 13.78125 -2.46875 C 14.800781 -3.039062 15.664062 -3.835938 16.375 -4.859375 L 16.375 -10.96875 L 12.828125 -10.96875 C 10.285156 -10.96875 8.507812 -10.519531 7.5 -9.625 C 6.5 -8.738281 6 -7.5625 6 -6.09375 C 6 -4.613281 6.363281 -3.492188 7.09375 -2.734375 C 7.832031 -1.984375 8.96875 -1.609375 10.5 -1.609375 Z M 10.5 -1.609375 "/></g></g></g><g fill="#fe428e" fill-opacity="1"><g transform="translate(346.536331, 58.499999)"><g><path d="M 11.359375 -1.890625 C 13.179688 -1.890625 14.613281 -2.238281 15.65625 -2.9375 C 16.695312 -3.644531 17.21875 -4.570312 17.21875 -5.71875 C 17.21875 -6.414062 17.101562 -7.023438 16.875 -7.546875 C 16.65625 -8.078125 16.171875 -8.550781 15.421875 -8.96875 C 14.679688 -9.382812 13.546875 -9.773438 12.015625 -10.140625 C 10.472656 -10.515625 9.140625 -10.929688 8.015625 -11.390625 C 6.898438 -11.859375 6.035156 -12.46875 5.421875 -13.21875 C 4.816406 -13.96875 4.515625 -14.960938 4.515625 -16.203125 C 4.515625 -17.378906 4.847656 -18.382812 5.515625 -19.21875 C 6.191406 -20.0625 7.117188 -20.703125 8.296875 -21.140625 C 9.472656 -21.585938 10.800781 -21.8125 12.28125 -21.8125 C 13.945312 -21.8125 15.398438 -21.582031 16.640625 -21.125 C 17.890625 -20.675781 18.9375 -20.132812 19.78125 -19.5 L 18.609375 -17.625 C 17.816406 -18.175781 16.9375 -18.632812 15.96875 -19 C 15.007812 -19.375 13.785156 -19.5625 12.296875 -19.5625 C 10.410156 -19.5625 9.085938 -19.257812 8.328125 -18.65625 C 7.566406 -18.0625 7.1875 -17.3125 7.1875 -16.40625 C 7.1875 -15.695312 7.367188 -15.113281 7.734375 -14.65625 C 8.109375 -14.195312 8.722656 -13.796875 9.578125 -13.453125 C 10.441406 -13.109375 11.601562 -12.738281 13.0625 -12.34375 C 14.457031 -11.976562 15.675781 -11.535156 16.71875 -11.015625 C 17.769531 -10.492188 18.585938 -9.816406 19.171875 -8.984375 C 19.753906 -8.160156 20.046875 -7.085938 20.046875 -5.765625 C 20.046875 -4.265625 19.617188 -3.0625 18.765625 -2.15625 C 17.921875 -1.25 16.832031 -0.59375 15.5 -0.1875 C 14.164062 0.207031 12.78125 0.40625 11.34375 0.40625 C 9.445312 0.40625 7.847656 0.128906 6.546875 -0.421875 C 5.253906 -0.984375 4.179688 -1.640625 3.328125 -2.390625 L 4.890625 -4.25 C 5.734375 -3.539062 6.707031 -2.96875 7.8125 -2.53125 C 8.914062 -2.101562 10.097656 -1.890625 11.359375 -1.890625 Z M 11.359375 -1.890625 "/></g></g></g></svg>