<svg xmlns="http://www.w3.org/2000/svg" xmlns:xlink="http://www.w3.org/1999/xlink" width="500" zoomAndPan="magnify" viewBox="0 0 375 89.999999" height="120" preserveAspectRatio="xMidYMid meet" version="1.0"><defs><g/></defs><g fill="#fe428e" fill-opacity="1"><g transform="translate(57.984374, 53.624999)"><g><path d="M 12.484375 -5.046875 L 4.640625 -5.046875 L 3.046875 0 L 0.59375 0 L 7.046875 -19.828125 L 10.234375 -19.828125 L 16.6875 0 L 14.0625 0 Z M 5.28125 -7.125 L 11.828125 -7.125 L 8.578125 -17.71875 Z M 5.28125 -7.125 "/></g></g></g><g fill="#fe428e" fill-opacity="1"><g transform="translate(75.253084, 53.624999)"><g><path d="M 2.890625 0 L 2.890625 -15.15625 L 4.953125 -15.15625 L 5.140625 -13.0625 C 5.753906 -13.832031 6.523438 -14.425781 7.453125 -14.84375 C 8.378906 -15.269531 9.28125 -15.484375 10.15625 -15.484375 C 11.632812 -15.484375 12.710938 -15.085938 13.390625 -14.296875 C 14.066406 -13.503906 14.40625 -12.410156 14.40625 -11.015625 L 14.40625 0 L 12 0 L 12 -9.234375 C 12 -10.265625 11.9375 -11.097656 11.8125 -11.734375 C 11.695312 -12.378906 11.457031 -12.847656 11.09375 -13.140625 C 10.726562 -13.429688 10.164062 -13.578125 9.40625 -13.578125 C 8.8125 -13.578125 8.25 -13.445312 7.71875 -13.1875 C 7.195312 -12.925781 6.734375 -12.601562 6.328125 -12.21875 C 5.921875 -11.832031 5.582031 -11.441406 5.3125 -11.046875 L 5.3125 0 Z M 2.890625 0 "/></g></g></g><g fill="#fe428e" fill-opacity="1"><g transform="translate(92.521794, 53.624999)"><g><path d="M 13.75 -3.3125 C 13.75 -2.707031 13.847656 -2.265625 14.046875 -1.984375 C 14.253906 -1.703125 14.566406 -1.5 14.984375 -1.375 L 14.390625 0.328125 C 13.742188 0.242188 13.175781 0.0351562 12.6875 -0.296875 C 12.195312 -0.628906 11.84375 -1.128906 11.625 -1.796875 C 11.070312 -1.097656 10.382812 -0.566406 9.5625 -0.203125 C 8.75 0.148438 7.851562 0.328125 6.875 0.328125 C 5.351562 0.328125 4.15625 -0.0976562 3.28125 -0.953125 C 2.40625 -1.804688 1.96875 -2.9375 1.96875 -4.34375 C 1.96875 -5.90625 2.578125 -7.101562 3.796875 -7.9375 C 5.015625 -8.78125 6.773438 -9.203125 9.078125 -9.203125 L 11.3125 -9.203125 L 11.3125 -10.46875 C 11.3125 -11.5625 10.992188 -12.335938 10.359375 -12.796875 C 9.722656 -13.253906 8.835938 -13.484375 7.703125 -13.484375 C 7.203125 -13.484375 6.613281 -13.421875 5.9375 -13.296875 C 5.269531 -13.171875 4.546875 -12.972656 3.765625 -12.703125 L 3.125 -14.53125 C 4.050781 -14.875 4.921875 -15.117188 5.734375 -15.265625 C 6.554688 -15.410156 7.335938 -15.484375 8.078125 -15.484375 C 9.960938 -15.484375 11.378906 -15.039062 12.328125 -14.15625 C 13.273438 -13.28125 13.75 -12.085938 13.75 -10.578125 Z M 7.484375 -1.515625 C 8.234375 -1.515625 8.945312 -1.703125 9.625 -2.078125 C 10.3125 -2.460938 10.875 -2.988281 11.3125 -3.65625 L 11.3125 -7.5625 L 9.125 -7.5625 C 7.457031 -7.5625 6.28125 -7.269531 5.59375 -6.6875 C 4.90625 -6.113281 4.5625 -5.34375 4.5625 -4.375 C 4.5625 -3.4375 4.800781 -2.722656 5.28125 -2.234375 C 5.769531 -1.753906 6.503906 -1.515625 7.484375 -1.515625 Z M 7.484375 -1.515625 "/></g></g></g><g fill="#fe428e" fill-opacity="1"><g transform="translate(109.790504, 53.624999)"><g/></g></g><g fill="#fe428e" fill-opacity="1"><g transform="translate(127.059214, 53.624999)"><g><path d="M 3.90625 0 L 3.90625 -19.828125 L 6.40625 -19.828125 L 6.40625 -2.234375 L 15.453125 -2.234375 L 15.15625 0 Z M 3.90625 0 "/></g></g></g><g fill="#fe428e" fill-opacity="1"><g transform="translate(144.327924, 53.624999)"><g><path d="M 5.3125 -15.15625 L 5.3125 -4.421875 C 5.3125 -3.421875 5.515625 -2.695312 5.921875 -2.25 C 6.335938 -1.8125 6.984375 -1.59375 7.859375 -1.59375 C 8.691406 -1.59375 9.476562 -1.832031 10.21875 -2.3125 C 10.96875 -2.789062 11.550781 -3.351562 11.96875 -4 L 11.96875 -15.15625 L 14.390625 -15.15625 L 14.390625 0 L 12.328125 0 L 12.125 -2.046875 C 11.53125 -1.273438 10.796875 -0.6875 9.921875 -0.28125 C 9.046875 0.125 8.160156 0.328125 7.265625 0.328125 C 5.796875 0.328125 4.695312 -0.0625 3.96875 -0.84375 C 3.25 -1.625 2.890625 -2.71875 2.890625 -4.125 L 2.890625 -15.15625 Z M 5.3125 -15.15625 "/></g></g></g><g fill="#fe428e" fill-opacity="1"><g transform="translate(161.596635, 53.624999)"><g><path d="M 10.5625 -15.15625 L 10.5625 -1.921875 L 14.84375 -1.921875 L 14.84375 0 L 3.46875 0 L 3.46875 -1.921875 L 8.15625 -1.921875 L 8.15625 -13.25 L 3.609375 -13.25 L 3.609375 -15.15625 Z M 11.09375 -22.953125 L 12.21875 -20.875 L 6.1875 -18.4375 L 5.453125 -19.71875 Z M 11.09375 -22.953125 "/></g></g></g><g fill="#fe428e" fill-opacity="1"><g transform="translate(178.865345, 53.624999)"><g><path d="M 8.046875 -1.671875 C 9.210938 -1.671875 10.132812 -1.890625 10.8125 -2.328125 C 11.488281 -2.765625 11.828125 -3.347656 11.828125 -4.078125 C 11.828125 -4.535156 11.738281 -4.929688 11.5625 -5.265625 C 11.394531 -5.609375 11.050781 -5.910156 10.53125 -6.171875 C 10.019531 -6.441406 9.226562 -6.710938 8.15625 -6.984375 C 7.101562 -7.242188 6.191406 -7.539062 5.421875 -7.875 C 4.648438 -8.21875 4.050781 -8.660156 3.625 -9.203125 C 3.195312 -9.753906 2.984375 -10.46875 2.984375 -11.34375 C 2.984375 -12.195312 3.222656 -12.929688 3.703125 -13.546875 C 4.191406 -14.171875 4.867188 -14.648438 5.734375 -14.984375 C 6.597656 -15.316406 7.597656 -15.484375 8.734375 -15.484375 C 9.953125 -15.484375 11.015625 -15.320312 11.921875 -15 C 12.835938 -14.675781 13.609375 -14.28125 14.234375 -13.8125 L 13.171875 -12.171875 C 12.597656 -12.554688 11.960938 -12.875 11.265625 -13.125 C 10.578125 -13.382812 9.742188 -13.515625 8.765625 -13.515625 C 7.578125 -13.515625 6.734375 -13.328125 6.234375 -12.953125 C 5.734375 -12.585938 5.484375 -12.113281 5.484375 -11.53125 C 5.484375 -11.09375 5.601562 -10.726562 5.84375 -10.4375 C 6.09375 -10.144531 6.507812 -9.878906 7.09375 -9.640625 C 7.6875 -9.398438 8.492188 -9.144531 9.515625 -8.875 C 10.503906 -8.613281 11.363281 -8.300781 12.09375 -7.9375 C 12.832031 -7.570312 13.40625 -7.085938 13.8125 -6.484375 C 14.226562 -5.890625 14.4375 -5.125 14.4375 -4.1875 C 14.4375 -3.113281 14.128906 -2.242188 13.515625 -1.578125 C 12.898438 -0.910156 12.101562 -0.425781 11.125 -0.125 C 10.15625 0.175781 9.128906 0.328125 8.046875 0.328125 C 6.671875 0.328125 5.5 0.128906 4.53125 -0.265625 C 3.570312 -0.660156 2.765625 -1.144531 2.109375 -1.71875 L 3.5 -3.3125 C 4.09375 -2.820312 4.773438 -2.425781 5.546875 -2.125 C 6.316406 -1.820312 7.148438 -1.671875 8.046875 -1.671875 Z M 8.046875 -1.671875 "/></g></g></g><g fill="#fe428e" fill-opacity="1"><g transform="translate(196.134055, 53.624999)"><g><path d="M 13.75 -3.3125 C 13.75 -2.707031 13.847656 -2.265625 14.046875 -1.984375 C 14.253906 -1.703125 14.566406 -1.5 14.984375 -1.375 L 14.390625 0.328125 C 13.742188 0.242188 13.175781 0.0351562 12.6875 -0.296875 C 12.195312 -0.628906 11.84375 -1.128906 11.625 -1.796875 C 11.070312 -1.097656 10.382812 -0.566406 9.5625 -0.203125 C 8.75 0.148438 7.851562 0.328125 6.875 0.328125 C 5.351562 0.328125 4.15625 -0.0976562 3.28125 -0.953125 C 2.40625 -1.804688 1.96875 -2.9375 1.96875 -4.34375 C 1.96875 -5.90625 2.578125 -7.101562 3.796875 -7.9375 C 5.015625 -8.78125 6.773438 -9.203125 9.078125 -9.203125 L 11.3125 -9.203125 L 11.3125 -10.46875 C 11.3125 -11.5625 10.992188 -12.335938 10.359375 -12.796875 C 9.722656 -13.253906 8.835938 -13.484375 7.703125 -13.484375 C 7.203125 -13.484375 6.613281 -13.421875 5.9375 -13.296875 C 5.269531 -13.171875 4.546875 -12.972656 3.765625 -12.703125 L 3.125 -14.53125 C 4.050781 -14.875 4.921875 -15.117188 5.734375 -15.265625 C 6.554688 -15.410156 7.335938 -15.484375 8.078125 -15.484375 C 9.960938 -15.484375 11.378906 -15.039062 12.328125 -14.15625 C 13.273438 -13.28125 13.75 -12.085938 13.75 -10.578125 Z M 7.484375 -1.515625 C 8.234375 -1.515625 8.945312 -1.703125 9.625 -2.078125 C 10.3125 -2.460938 10.875 -2.988281 11.3125 -3.65625 L 11.3125 -7.5625 L 9.125 -7.5625 C 7.457031 -7.5625 6.28125 -7.269531 5.59375 -6.6875 C 4.90625 -6.113281 4.5625 -5.34375 4.5625 -4.375 C 4.5625 -3.4375 4.800781 -2.722656 5.28125 -2.234375 C 5.769531 -1.753906 6.503906 -1.515625 7.484375 -1.515625 Z M 7.484375 -1.515625 "/></g></g></g><g fill="#fe428e" fill-opacity="1"><g transform="translate(213.402765, 53.624999)"><g/></g></g><g fill="#fe428e" fill-opacity="1"><g transform="translate(230.671475, 53.624999)"><g><path d="M 6.125 -17.78125 L 6.125 -11.09375 L 13.46875 -11.09375 L 13.46875 -9.046875 L 6.125 -9.046875 L 6.125 -2 L 15.125 -2 L 15.125 0 L 3.609375 0 L 3.609375 -19.828125 L 14.875 -19.828125 L 14.578125 -17.78125 Z M 6.125 -17.78125 "/></g></g></g><g fill="#fe428e" fill-opacity="1"><g transform="translate(247.940185, 53.624999)"><g><path d="M 8.796875 -21.265625 L 8.796875 -3.75 C 8.796875 -3 9.023438 -2.46875 9.484375 -2.15625 C 9.953125 -1.84375 10.554688 -1.6875 11.296875 -1.6875 C 11.765625 -1.6875 12.203125 -1.734375 12.609375 -1.828125 C 13.023438 -1.921875 13.4375 -2.050781 13.84375 -2.21875 L 14.5 -0.453125 C 14.082031 -0.242188 13.566406 -0.0625 12.953125 0.09375 C 12.347656 0.25 11.664062 0.328125 10.90625 0.328125 C 9.5625 0.328125 8.46875 -0.0390625 7.625 -0.78125 C 6.789062 -1.53125 6.375 -2.5625 6.375 -3.875 L 6.375 -19.34375 L 1.734375 -19.34375 L 1.734375 -21.265625 Z M 8.796875 -21.265625 "/></g></g></g><g fill="#fe428e" fill-opacity="1"><g transform="translate(265.208895, 53.624999)"><g><path d="M 10.5625 -15.15625 L 10.5625 -1.921875 L 14.84375 -1.921875 L 14.84375 0 L 3.46875 0 L 3.46875 -1.921875 L 8.15625 -1.921875 L 8.15625 -13.25 L 3.609375 -13.25 L 3.609375 -15.15625 Z M 8.640625 -22.265625 C 9.171875 -22.265625 9.597656 -22.097656 9.921875 -21.765625 C 10.242188 -21.441406 10.40625 -21.046875 10.40625 -20.578125 C 10.40625 -20.085938 10.242188 -19.675781 9.921875 -19.34375 C 9.597656 -19.007812 9.171875 -18.84375 8.640625 -18.84375 C 8.128906 -18.84375 7.707031 -19.007812 7.375 -19.34375 C 7.050781 -19.675781 6.890625 -20.085938 6.890625 -20.578125 C 6.890625 -21.046875 7.050781 -21.441406 7.375 -21.765625 C 7.707031 -22.097656 8.128906 -22.265625 8.640625 -22.265625 Z M 8.640625 -22.265625 "/></g></g></g><g fill="#fe428e" fill-opacity="1"><g transform="translate(282.477616, 53.624999)"><g><path d="M 13.75 -3.3125 C 13.75 -2.707031 13.847656 -2.265625 14.046875 -1.984375 C 14.253906 -1.703125 14.566406 -1.5 14.984375 -1.375 L 14.390625 0.328125 C 13.742188 0.242188 13.175781 0.0351562 12.6875 -0.296875 C 12.195312 -0.628906 11.84375 -1.128906 11.625 -1.796875 C 11.070312 -1.097656 10.382812 -0.566406 9.5625 -0.203125 C 8.75 0.148438 7.851562 0.328125 6.875 0.328125 C 5.351562 0.328125 4.15625 -0.0976562 3.28125 -0.953125 C 2.40625 -1.804688 1.96875 -2.9375 1.96875 -4.34375 C 1.96875 -5.90625 2.578125 -7.101562 3.796875 -7.9375 C 5.015625 -8.78125 6.773438 -9.203125 9.078125 -9.203125 L 11.3125 -9.203125 L 11.3125 -10.46875 C 11.3125 -11.5625 10.992188 -12.335938 10.359375 -12.796875 C 9.722656 -13.253906 8.835938 -13.484375 7.703125 -13.484375 C 7.203125 -13.484375 6.613281 -13.421875 5.9375 -13.296875 C 5.269531 -13.171875 4.546875 -12.972656 3.765625 -12.703125 L 3.125 -14.53125 C 4.050781 -14.875 4.921875 -15.117188 5.734375 -15.265625 C 6.554688 -15.410156 7.335938 -15.484375 8.078125 -15.484375 C 9.960938 -15.484375 11.378906 -15.039062 12.328125 -14.15625 C 13.273438 -13.28125 13.75 -12.085938 13.75 -10.578125 Z M 7.484375 -1.515625 C 8.234375 -1.515625 8.945312 -1.703125 9.625 -2.078125 C 10.3125 -2.460938 10.875 -2.988281 11.3125 -3.65625 L 11.3125 -7.5625 L 9.125 -7.5625 C 7.457031 -7.5625 6.28125 -7.269531 5.59375 -6.6875 C 4.90625 -6.113281 4.5625 -5.34375 4.5625 -4.375 C 4.5625 -3.4375 4.800781 -2.722656 5.28125 -2.234375 C 5.769531 -1.753906 6.503906 -1.515625 7.484375 -1.515625 Z M 7.484375 -1.515625 "/></g></g></g><g fill="#fe428e" fill-opacity="1"><g transform="translate(299.746338, 53.624999)"><g><path d="M 8.046875 -1.671875 C 9.210938 -1.671875 10.132812 -1.890625 10.8125 -2.328125 C 11.488281 -2.765625 11.828125 -3.347656 11.828125 -4.078125 C 11.828125 -4.535156 11.738281 -4.929688 11.5625 -5.265625 C 11.394531 -5.609375 11.050781 -5.910156 10.53125 -6.171875 C 10.019531 -6.441406 9.226562 -6.710938 8.15625 -6.984375 C 7.101562 -7.242188 6.191406 -7.539062 5.421875 -7.875 C 4.648438 -8.21875 4.050781 -8.660156 3.625 -9.203125 C 3.195312 -9.753906 2.984375 -10.46875 2.984375 -11.34375 C 2.984375 -12.195312 3.222656 -12.929688 3.703125 -13.546875 C 4.191406 -14.171875 4.867188 -14.648438 5.734375 -14.984375 C 6.597656 -15.316406 7.597656 -15.484375 8.734375 -15.484375 C 9.953125 -15.484375 11.015625 -15.320312 11.921875 -15 C 12.835938 -14.675781 13.609375 -14.28125 14.234375 -13.8125 L 13.171875 -12.171875 C 12.597656 -12.554688 11.960938 -12.875 11.265625 -13.125 C 10.578125 -13.382812 9.742188 -13.515625 8.765625 -13.515625 C 7.578125 -13.515625 6.734375 -13.328125 6.234375 -12.953125 C 5.734375 -12.585938 5.484375 -12.113281 5.484375 -11.53125 C 5.484375 -11.09375 5.601562 -10.726562 5.84375 -10.4375 C 6.09375 -10.144531 6.507812 -9.878906 7.09375 -9.640625 C 7.6875 -9.398438 8.492188 -9.144531 9.515625 -8.875 C 10.503906 -8.613281 11.363281 -8.300781 12.09375 -7.9375 C 12.832031 -7.570312 13.40625 -7.085938 13.8125 -6.484375 C 14.226562 -5.890625 14.4375 -5.125 14.4375 -4.1875 C 14.4375 -3.113281 14.128906 -2.242188 13.515625 -1.578125 C 12.898438 -0.910156 12.101562 -0.425781 11.125 -0.125 C 10.15625 0.175781 9.128906 0.328125 8.046875 0.328125 C 6.671875 0.328125 5.5 0.128906 4.53125 -0.265625 C 3.570312 -0.660156 2.765625 -1.144531 2.109375 -1.71875 L 3.5 -3.3125 C 4.09375 -2.820312 4.773438 -2.425781 5.546875 -2.125 C 6.316406 -1.820312 7.148438 -1.671875 8.046875 -1.671875 Z M 8.046875 -1.671875 "/></g></g></g></svg>