<svg xmlns="http://www.w3.org/2000/svg" xmlns:xlink="http://www.w3.org/1999/xlink" width="1000" zoomAndPan="magnify" viewBox="0 0 750 149.999998" height="200" preserveAspectRatio="xMidYMid meet" version="1.0"><path fill="#a9fef7" d="M -37.480469 -94.308594 L 787.511719 -93.945312 L 786.78125 53.367188 C 725.75 40.191406 678.046875 38.542969 643.667969 48.421875 C 630.132812 51.546875 615.125 56.824219 598.636719 64.246094 C 588.132812 68.710938 553.742188 86.652344 495.464844 118.074219 C 483.816406 123.839844 472.261719 128.867188 460.792969 133.160156 C 449.328125 137.453125 438.046875 140.582031 426.953125 142.542969 C 411.929688 144.269531 405.050781 144.878906 406.3125 144.375 L 390.726562 143.324219 C 380.46875 141.886719 370.382812 139.386719 360.476562 135.824219 C 350.570312 132.257812 340.757812 128.035156 331.035156 123.152344 L 257.710938 84.816406 C 232.789062 74.5625 217.007812 69.328125 210.367188 69.113281 C 192.992188 65.589844 172.3125 64.128906 148.328125 64.730469 C 144.691406 64.675781 134.351562 65.261719 117.3125 66.484375 L 61.636719 71.367188 C 49.742188 72.039062 40.746094 72.089844 34.648438 71.515625 C 23.328125 71.46875 9.941406 67.851562 -5.507812 60.664062 C -17.363281 53.605469 -27.507812 45.445312 -35.945312 36.179688 L -37.480469 -94.308594 " fill-opacity="1" fill-rule="nonzero"/><path fill="#fe428e" d="M 782.460938 76.523438 C 766.136719 77.75 749.613281 78.992188 731.292969 78.992188 C 713.992188 78.992188 695.105469 77.886719 673.164062 74.632812 C 665.6875 73.527344 657.871094 72.171875 649.839844 70.78125 C 641.171875 69.277344 632.25 67.734375 623.085938 66.375 C 607.417969 64.054688 591.179688 62.304688 574.730469 62.304688 C 555.828125 62.304688 536.703125 64.613281 517.921875 70.992188 C 495.0625 78.753906 472.449219 92.589844 449.292969 106.792969 C 426.523438 120.757812 403.199219 135.085938 379.507812 143.128906 C 370.777344 146.09375 361.929688 148.230469 352.964844 149.1875 C 349.183594 149.59375 345.398438 149.785156 341.625 149.785156 C 295.789062 149.785156 249.757812 121.367188 212.214844 98.332031 C 205.609375 94.277344 199.242188 90.375 193.140625 86.769531 C 149.210938 60.839844 118.539062 50.386719 84.054688 49.84375 C 83.101562 49.832031 82.140625 49.824219 81.179688 49.824219 C 46.976562 49.824219 8.855469 59.144531 -30.078125 68.699219 C -32.835938 69.375 -35.621094 67.6875 -36.296875 64.929688 C -36.976562 62.167969 -35.289062 59.382812 -32.527344 58.707031 C 6.074219 49.234375 45.484375 39.535156 81.179688 39.535156 C 82.191406 39.535156 83.210938 39.542969 84.214844 39.558594 C 121.15625 40.136719 153.609375 51.488281 198.371094 77.910156 C 204.5625 81.566406 211.003906 85.519531 217.59375 89.5625 C 255.863281 113.042969 299.269531 139.496094 341.625 139.496094 C 345.050781 139.496094 348.46875 139.324219 351.871094 138.960938 C 359.945312 138.097656 368.042969 136.15625 376.199219 133.386719 C 398.597656 125.785156 420.90625 112.132812 443.914062 98.023438 C 466.839844 83.964844 490.460938 69.449219 514.613281 61.25 C 534.707031 54.425781 554.992188 52.015625 574.730469 52.015625 C 591.886719 52.015625 608.671875 53.839844 624.59375 56.199219 C 633.902344 57.578125 642.949219 59.144531 651.597656 60.644531 C 659.65625 62.039062 667.34375 63.371094 674.671875 64.457031 C 696.078125 67.628906 714.460938 68.703125 731.292969 68.703125 C 749.175781 68.703125 765.332031 67.492188 781.6875 66.265625 C 784.523438 66.050781 786.992188 68.175781 787.203125 71.007812 C 787.417969 73.84375 785.292969 76.3125 782.460938 76.523438 Z M 782.460938 76.523438 " fill-opacity="0.996" fill-rule="nonzero"/></svg>