<svg xmlns="http://www.w3.org/2000/svg" xmlns:xlink="http://www.w3.org/1999/xlink" width="1000" zoomAndPan="magnify" viewBox="0 0 750 112.499997" height="150" preserveAspectRatio="xMidYMid meet" version="1.0"><defs><clipPath id="a14c21ccac"><path d="M 1.660156 4 L 748.339844 4 L 748.339844 112.003906 L 1.660156 112.003906 Z M 1.660156 4 " clip-rule="nonzero"/></clipPath><clipPath id="84a3c9a24a"><path d="M 1.660156 0.1875 L 748 0.1875 L 748 100 L 1.660156 100 Z M 1.660156 0.1875 " clip-rule="nonzero"/></clipPath></defs><g clip-path="url(#a14c21ccac)"><path fill="#a9fef7" d="M 748.320312 221.113281 L 1.648438 220.785156 L 2.3125 87.460938 C 57.546875 99.386719 100.722656 100.878906 131.839844 91.9375 C 144.085938 89.105469 157.671875 84.332031 172.59375 77.613281 C 182.101562 73.574219 213.226562 57.332031 265.972656 28.894531 C 276.511719 23.675781 286.972656 19.125 297.351562 15.242188 C 307.726562 11.355469 317.9375 8.523438 327.976562 6.75 C 341.574219 5.1875 347.804688 4.632812 346.660156 5.089844 L 360.765625 6.042969 C 370.050781 7.34375 379.179688 9.605469 388.144531 12.832031 C 397.109375 16.058594 405.992188 19.878906 414.789062 24.300781 L 481.152344 58.996094 C 503.710938 68.273438 517.996094 73.011719 524.003906 73.210938 C 539.730469 76.398438 558.445312 77.71875 580.152344 77.175781 C 583.445312 77.222656 592.804688 76.695312 608.226562 75.589844 L 658.613281 71.167969 C 669.378906 70.558594 677.519531 70.515625 683.042969 71.035156 C 693.289062 71.074219 705.402344 74.347656 719.386719 80.855469 C 730.117188 87.242188 739.296875 94.628906 746.933594 103.015625 L 748.320312 221.113281 " fill-opacity="1" fill-rule="nonzero"/></g><g clip-path="url(#84a3c9a24a)"><path fill="#fe428e" d="M 6.222656 66.5 C 20.992188 65.390625 35.949219 64.265625 52.527344 64.265625 C 68.1875 64.265625 85.28125 65.269531 105.140625 68.210938 C 111.90625 69.214844 118.984375 70.441406 126.25 71.699219 C 134.09375 73.058594 142.171875 74.457031 150.464844 75.6875 C 164.644531 77.789062 179.339844 79.371094 194.230469 79.371094 C 211.339844 79.371094 228.648438 77.28125 245.648438 71.507812 C 266.335938 64.484375 286.800781 51.957031 307.761719 39.105469 C 328.367188 26.46875 349.476562 13.5 370.921875 6.21875 C 378.820312 3.535156 386.828125 1.601562 394.945312 0.734375 C 398.363281 0.367188 401.789062 0.195312 405.207031 0.195312 C 446.691406 0.195312 488.351562 25.914062 522.332031 46.761719 C 528.3125 50.433594 534.074219 53.964844 539.59375 57.226562 C 579.351562 80.695312 607.113281 90.15625 638.324219 90.648438 C 639.1875 90.660156 640.058594 90.667969 640.925781 90.667969 C 671.882812 90.667969 706.386719 82.230469 741.621094 73.582031 C 744.121094 72.972656 746.640625 74.5 747.253906 76.996094 C 747.867188 79.492188 746.339844 82.015625 743.839844 82.628906 C 708.902344 91.199219 673.234375 99.980469 640.925781 99.980469 C 640.011719 99.980469 639.089844 99.972656 638.179688 99.957031 C 604.746094 99.433594 575.375 89.160156 534.863281 65.246094 C 529.257812 61.9375 523.425781 58.359375 517.460938 54.699219 C 482.824219 33.449219 443.542969 9.507812 405.207031 9.507812 C 402.105469 9.507812 399.011719 9.664062 395.933594 9.992188 C 388.628906 10.773438 381.296875 12.527344 373.914062 15.035156 C 353.644531 21.917969 333.453125 34.273438 312.628906 47.042969 C 291.878906 59.769531 270.5 72.902344 248.640625 80.324219 C 230.453125 86.5 212.09375 88.683594 194.230469 88.683594 C 178.703125 88.683594 163.507812 87.03125 149.101562 84.898438 C 140.675781 83.648438 132.488281 82.230469 124.660156 80.875 C 117.367188 79.609375 110.410156 78.40625 103.777344 77.421875 C 84.402344 74.550781 67.765625 73.578125 52.527344 73.578125 C 36.347656 73.578125 21.722656 74.675781 6.917969 75.785156 C 4.355469 75.980469 2.121094 74.054688 1.925781 71.492188 C 1.734375 68.929688 3.65625 66.691406 6.222656 66.5 Z M 6.222656 66.5 " fill-opacity="0.996" fill-rule="nonzero"/></g></svg>