<svg xmlns="http://www.w3.org/2000/svg" xmlns:xlink="http://www.w3.org/1999/xlink" width="1000" zoomAndPan="magnify" viewBox="0 0 750 112.499997" height="150" preserveAspectRatio="xMidYMid meet" version="1.0"><defs><clipPath id="ee6e73846e"><path d="M 1.660156 0 L 748.339844 0 L 748.339844 108 L 1.660156 108 Z M 1.660156 0 " clip-rule="nonzero"/></clipPath><clipPath id="06bf05c3c1"><path d="M 2 12 L 748.339844 12 L 748.339844 111.816406 L 2 111.816406 Z M 2 12 " clip-rule="nonzero"/></clipPath></defs><g clip-path="url(#ee6e73846e)"><path fill="#a9fef7" d="M 1.679688 -109.113281 L 748.351562 -108.785156 L 747.6875 24.542969 C 692.453125 12.617188 649.277344 11.125 618.160156 20.066406 C 605.914062 22.894531 592.328125 27.671875 577.40625 34.390625 C 567.898438 38.429688 536.773438 54.667969 484.027344 83.105469 C 473.488281 88.324219 463.027344 92.875 452.648438 96.761719 C 442.273438 100.644531 432.0625 103.476562 422.023438 105.253906 C 408.425781 106.816406 402.195312 107.367188 403.339844 106.910156 L 389.234375 105.960938 C 379.949219 104.660156 370.820312 102.398438 361.855469 99.171875 C 352.890625 95.945312 344.007812 92.121094 335.210938 87.703125 L 268.847656 53.007812 C 246.289062 43.726562 232.003906 38.988281 225.996094 38.792969 C 210.269531 35.605469 191.554688 34.28125 169.847656 34.828125 C 166.554688 34.777344 157.195312 35.308594 141.773438 36.414062 L 91.386719 40.832031 C 80.621094 41.441406 72.480469 41.488281 66.957031 40.96875 C 56.710938 40.925781 44.597656 37.652344 30.613281 31.148438 C 19.882812 24.761719 10.703125 17.375 3.066406 8.988281 L 1.679688 -109.113281 " fill-opacity="1" fill-rule="nonzero"/></g><g clip-path="url(#06bf05c3c1)"><path fill="#fe428e" d="M 743.777344 45.5 C 729.007812 46.609375 714.050781 47.734375 697.472656 47.734375 C 681.8125 47.734375 664.71875 46.734375 644.859375 43.792969 C 638.09375 42.789062 631.015625 41.5625 623.75 40.304688 C 615.90625 38.945312 607.828125 37.542969 599.535156 36.316406 C 585.355469 34.214844 570.660156 32.628906 555.769531 32.628906 C 538.660156 32.628906 521.351562 34.722656 504.351562 40.496094 C 483.664062 47.519531 463.199219 60.042969 442.238281 72.894531 C 421.628906 85.535156 400.523438 98.503906 379.078125 105.785156 C 371.179688 108.464844 363.171875 110.402344 355.054688 111.269531 C 351.636719 111.632812 348.210938 111.808594 344.792969 111.808594 C 303.308594 111.808594 261.648438 86.085938 227.667969 65.238281 C 221.6875 61.570312 215.925781 58.035156 210.40625 54.777344 C 170.648438 31.304688 142.886719 21.84375 111.675781 21.355469 C 110.8125 21.339844 109.941406 21.335938 109.074219 21.335938 C 78.117188 21.335938 43.613281 29.773438 8.378906 38.417969 C 5.878906 39.03125 3.359375 37.503906 2.746094 35.007812 C 2.132812 32.507812 3.660156 29.988281 6.160156 29.375 C 41.097656 20.800781 76.765625 12.023438 109.074219 12.023438 C 109.988281 12.023438 110.910156 12.03125 111.820312 12.042969 C 145.253906 12.570312 174.625 22.84375 215.136719 46.757812 C 220.742188 50.0625 226.574219 53.640625 232.539062 57.300781 C 267.175781 78.554688 306.457031 102.496094 344.792969 102.496094 C 347.894531 102.496094 350.988281 102.339844 354.066406 102.007812 C 361.371094 101.230469 368.703125 99.472656 376.085938 96.96875 C 396.355469 90.085938 416.546875 77.730469 437.371094 64.957031 C 458.121094 52.234375 479.5 39.097656 501.359375 31.675781 C 519.546875 25.503906 537.90625 23.320312 555.769531 23.320312 C 571.296875 23.320312 586.488281 24.96875 600.898438 27.105469 C 609.324219 28.351562 617.511719 29.773438 625.339844 31.128906 C 632.632812 32.390625 639.589844 33.597656 646.222656 34.582031 C 665.597656 37.449219 682.234375 38.425781 697.472656 38.425781 C 713.652344 38.425781 728.277344 37.328125 743.082031 36.214844 C 745.644531 36.023438 747.878906 37.945312 748.074219 40.511719 C 748.265625 43.074219 746.34375 45.308594 743.777344 45.5 Z M 743.777344 45.5 " fill-opacity="0.996" fill-rule="nonzero"/></g></svg>