<svg xmlns="http://www.w3.org/2000/svg" xmlns:xlink="http://www.w3.org/1999/xlink" width="1000" zoomAndPan="magnify" viewBox="0 0 750 149.999998" height="200" preserveAspectRatio="xMidYMid meet" version="1.0"><path fill="#a9fef7" d="M -37.480469 244.308594 L 787.511719 243.945312 L 786.78125 96.632812 C 725.75 109.808594 678.046875 111.457031 643.667969 101.578125 C 630.132812 98.453125 615.125 93.175781 598.636719 85.753906 C 588.132812 81.289062 553.742188 63.347656 495.464844 31.925781 C 483.816406 26.160156 472.261719 21.132812 460.792969 16.839844 C 449.328125 12.546875 438.046875 9.417969 426.953125 7.457031 C 411.929688 5.730469 405.050781 5.121094 406.3125 5.625 L 390.726562 6.675781 C 380.46875 8.113281 370.382812 10.613281 360.476562 14.175781 C 350.570312 17.742188 340.757812 21.964844 331.035156 26.847656 L 257.710938 65.183594 C 232.789062 75.4375 217.007812 80.671875 210.367188 80.886719 C 192.992188 84.410156 172.3125 85.871094 148.328125 85.269531 C 144.691406 85.324219 134.351562 84.738281 117.3125 83.515625 L 61.636719 78.632812 C 49.742188 77.960938 40.746094 77.910156 34.648438 78.484375 C 23.328125 78.53125 9.941406 82.148438 -5.507812 89.335938 C -17.363281 96.394531 -27.507812 104.554688 -35.945312 113.820312 L -37.480469 244.308594 " fill-opacity="1" fill-rule="nonzero"/><path fill="#fe428e" d="M 782.460938 73.476562 C 766.136719 72.25 749.613281 71.007812 731.292969 71.007812 C 713.992188 71.007812 695.105469 72.113281 673.164062 75.367188 C 665.6875 76.472656 657.871094 77.828125 649.839844 79.21875 C 641.171875 80.722656 632.25 82.265625 623.085938 83.625 C 607.417969 85.945312 591.179688 87.695312 574.730469 87.695312 C 555.828125 87.695312 536.703125 85.386719 517.921875 79.007812 C 495.0625 71.246094 472.449219 57.410156 449.292969 43.207031 C 426.523438 29.242188 403.199219 14.914062 379.507812 6.871094 C 370.777344 3.90625 361.929688 1.769531 352.964844 0.8125 C 349.183594 0.40625 345.398438 0.214844 341.625 0.214844 C 295.789062 0.214844 249.757812 28.632812 212.214844 51.667969 C 205.609375 55.722656 199.242188 59.625 193.140625 63.230469 C 149.210938 89.160156 118.539062 99.613281 84.054688 100.15625 C 83.101562 100.167969 82.140625 100.175781 81.179688 100.175781 C 46.976562 100.175781 8.855469 90.855469 -30.078125 81.300781 C -32.835938 80.625 -35.621094 82.3125 -36.296875 85.070312 C -36.976562 87.832031 -35.289062 90.617188 -32.527344 91.292969 C 6.074219 100.765625 45.484375 110.464844 81.179688 110.464844 C 82.191406 110.464844 83.210938 110.457031 84.214844 110.441406 C 121.15625 109.863281 153.609375 98.511719 198.371094 72.089844 C 204.5625 68.433594 211.003906 64.480469 217.59375 60.4375 C 255.863281 36.957031 299.269531 10.503906 341.625 10.503906 C 345.050781 10.503906 348.46875 10.675781 351.871094 11.039062 C 359.945312 11.902344 368.042969 13.84375 376.199219 16.613281 C 398.597656 24.214844 420.90625 37.867188 443.914062 51.976562 C 466.839844 66.035156 490.460938 80.550781 514.613281 88.75 C 534.707031 95.574219 554.992188 97.984375 574.730469 97.984375 C 591.886719 97.984375 608.671875 96.160156 624.59375 93.800781 C 633.902344 92.421875 642.949219 90.855469 651.597656 89.355469 C 659.65625 87.960938 667.34375 86.628906 674.671875 85.542969 C 696.078125 82.371094 714.460938 81.296875 731.292969 81.296875 C 749.175781 81.296875 765.332031 82.507812 781.6875 83.734375 C 784.523438 83.949219 786.992188 81.824219 787.203125 78.992188 C 787.417969 76.15625 785.292969 73.6875 782.460938 73.476562 Z M 782.460938 73.476562 " fill-opacity="0.996" fill-rule="nonzero"/></svg>