<svg xmlns="http://www.w3.org/2000/svg" xmlns:xlink="http://www.w3.org/1999/xlink" width="500" zoomAndPan="magnify" viewBox="0 0 375 89.999999" height="120" preserveAspectRatio="xMidYMid meet" version="1.0"><defs><g/></defs><g fill="#fe428e" fill-opacity="1"><g transform="translate(3.152346, 56.249999)"><g><path d="M 20.640625 -23.90625 L 16.734375 0 L 13.359375 0 L 10.3125 -18.328125 L 7.3125 0 L 3.828125 0 L 0.25 -23.90625 L 2.578125 -23.90625 L 5.65625 -2.859375 L 8.78125 -21.125 L 12.125 -21.125 L 15.125 -2.859375 L 18.484375 -23.90625 Z M 20.640625 -23.90625 "/></g></g></g><g fill="#fe428e" fill-opacity="1"><g transform="translate(24.021001, 56.249999)"><g><path d="M 5.375 -8.265625 C 5.40625 -6.734375 5.679688 -5.476562 6.203125 -4.5 C 6.722656 -3.519531 7.40625 -2.796875 8.25 -2.328125 C 9.09375 -1.867188 10.015625 -1.640625 11.015625 -1.640625 C 11.972656 -1.640625 12.828125 -1.773438 13.578125 -2.046875 C 14.328125 -2.328125 15.113281 -2.753906 15.9375 -3.328125 L 17.0625 -1.703125 C 16.21875 -1.054688 15.265625 -0.550781 14.203125 -0.1875 C 13.140625 0.164062 12.101562 0.34375 11.09375 0.34375 C 9.414062 0.34375 7.972656 -0.046875 6.765625 -0.828125 C 5.566406 -1.617188 4.648438 -2.722656 4.015625 -4.140625 C 3.378906 -5.566406 3.0625 -7.222656 3.0625 -9.109375 C 3.0625 -10.972656 3.382812 -12.617188 4.03125 -14.046875 C 4.6875 -15.472656 5.585938 -16.585938 6.734375 -17.390625 C 7.890625 -18.191406 9.234375 -18.59375 10.765625 -18.59375 C 12.253906 -18.59375 13.523438 -18.234375 14.578125 -17.515625 C 15.628906 -16.796875 16.4375 -15.773438 17 -14.453125 C 17.5625 -13.140625 17.84375 -11.578125 17.84375 -9.765625 C 17.84375 -9.453125 17.835938 -9.171875 17.828125 -8.921875 C 17.816406 -8.671875 17.804688 -8.453125 17.796875 -8.265625 Z M 10.828125 -16.578125 C 9.347656 -16.578125 8.109375 -16.054688 7.109375 -15.015625 C 6.109375 -13.972656 5.539062 -12.375 5.40625 -10.21875 L 15.796875 -10.21875 C 15.753906 -12.363281 15.273438 -13.957031 14.359375 -15 C 13.441406 -16.050781 12.265625 -16.578125 10.828125 -16.578125 Z M 10.828125 -16.578125 "/></g></g></g><g fill="#fe428e" fill-opacity="1"><g transform="translate(44.889656, 56.249999)"><g><path d="M 10.203125 -25.65625 L 10.203125 -4.140625 C 10.203125 -3.191406 10.503906 -2.519531 11.109375 -2.125 C 11.710938 -1.726562 12.484375 -1.53125 13.421875 -1.53125 C 13.992188 -1.53125 14.535156 -1.585938 15.046875 -1.703125 C 15.566406 -1.816406 16.097656 -1.976562 16.640625 -2.1875 L 17.265625 -0.515625 C 16.804688 -0.296875 16.226562 -0.0976562 15.53125 0.078125 C 14.84375 0.253906 14.066406 0.34375 13.203125 0.34375 C 11.765625 0.34375 10.539062 -0.046875 9.53125 -0.828125 C 8.53125 -1.609375 8.03125 -2.710938 8.03125 -4.140625 L 8.03125 -23.78125 L 2.359375 -23.78125 L 2.359375 -25.65625 Z M 10.203125 -25.65625 "/></g></g></g><g fill="#fe428e" fill-opacity="1"><g transform="translate(65.758311, 56.249999)"><g><path d="M 11.640625 -1.640625 C 12.609375 -1.640625 13.507812 -1.789062 14.34375 -2.09375 C 15.175781 -2.394531 15.925781 -2.78125 16.59375 -3.25 L 17.734375 -1.796875 C 16.929688 -1.117188 15.972656 -0.59375 14.859375 -0.21875 C 13.742188 0.15625 12.695312 0.34375 11.71875 0.34375 C 9.945312 0.34375 8.441406 -0.0390625 7.203125 -0.8125 C 5.972656 -1.582031 5.035156 -2.675781 4.390625 -4.09375 C 3.742188 -5.507812 3.421875 -7.164062 3.421875 -9.0625 C 3.421875 -10.875 3.742188 -12.5 4.390625 -13.9375 C 5.035156 -15.375 5.972656 -16.507812 7.203125 -17.34375 C 8.441406 -18.175781 9.957031 -18.59375 11.75 -18.59375 C 12.84375 -18.59375 13.890625 -18.421875 14.890625 -18.078125 C 15.898438 -17.734375 16.828125 -17.21875 17.671875 -16.53125 L 16.53125 -14.984375 C 15.707031 -15.546875 14.890625 -15.96875 14.078125 -16.25 C 13.273438 -16.539062 12.460938 -16.6875 11.640625 -16.6875 C 9.953125 -16.6875 8.5625 -16.046875 7.46875 -14.765625 C 6.375 -13.492188 5.828125 -11.59375 5.828125 -9.0625 C 5.828125 -7.351562 6.078125 -5.953125 6.578125 -4.859375 C 7.078125 -3.765625 7.765625 -2.953125 8.640625 -2.421875 C 9.515625 -1.898438 10.515625 -1.640625 11.640625 -1.640625 Z M 11.640625 -1.640625 "/></g></g></g><g fill="#fe428e" fill-opacity="1"><g transform="translate(86.626966, 56.249999)"><g><path d="M 10.484375 -18.59375 C 12.160156 -18.59375 13.554688 -18.203125 14.671875 -17.421875 C 15.785156 -16.648438 16.613281 -15.554688 17.15625 -14.140625 C 17.707031 -12.722656 17.984375 -11.054688 17.984375 -9.140625 C 17.984375 -7.328125 17.695312 -5.707031 17.125 -4.28125 C 16.5625 -2.851562 15.71875 -1.722656 14.59375 -0.890625 C 13.476562 -0.0664062 12.09375 0.34375 10.4375 0.34375 C 8.769531 0.34375 7.375 -0.0507812 6.25 -0.84375 C 5.132812 -1.632812 4.296875 -2.738281 3.734375 -4.15625 C 3.171875 -5.582031 2.890625 -7.226562 2.890625 -9.09375 C 2.890625 -10.96875 3.171875 -12.617188 3.734375 -14.046875 C 4.304688 -15.472656 5.15625 -16.585938 6.28125 -17.390625 C 7.414062 -18.191406 8.816406 -18.59375 10.484375 -18.59375 Z M 10.484375 -16.703125 C 8.773438 -16.703125 7.472656 -16.082031 6.578125 -14.84375 C 5.691406 -13.601562 5.25 -11.6875 5.25 -9.09375 C 5.25 -6.570312 5.679688 -4.6875 6.546875 -3.4375 C 7.421875 -2.1875 8.71875 -1.5625 10.4375 -1.5625 C 12.15625 -1.5625 13.445312 -2.1875 14.3125 -3.4375 C 15.1875 -4.6875 15.625 -6.585938 15.625 -9.140625 C 15.625 -11.703125 15.191406 -13.601562 14.328125 -14.84375 C 13.460938 -16.082031 12.179688 -16.703125 10.484375 -16.703125 Z M 10.484375 -16.703125 "/></g></g></g><g fill="#fe428e" fill-opacity="1"><g transform="translate(107.495621, 56.249999)"><g><path d="M 15.421875 -18.59375 C 15.910156 -18.59375 16.421875 -18.476562 16.953125 -18.25 C 17.492188 -18.03125 17.945312 -17.566406 18.3125 -16.859375 C 18.6875 -16.148438 18.875 -15.070312 18.875 -13.625 L 18.875 0 L 16.75 0 L 16.75 -13.203125 C 16.75 -14.503906 16.675781 -15.441406 16.53125 -16.015625 C 16.382812 -16.597656 15.941406 -16.890625 15.203125 -16.890625 C 14.578125 -16.890625 13.957031 -16.695312 13.34375 -16.3125 C 12.738281 -15.925781 12.164062 -15.289062 11.625 -14.40625 L 11.625 0 L 9.21875 0 L 9.21875 -13.203125 C 9.21875 -14.503906 9.144531 -15.441406 9 -16.015625 C 8.851562 -16.597656 8.410156 -16.890625 7.671875 -16.890625 C 7.023438 -16.890625 6.398438 -16.695312 5.796875 -16.3125 C 5.203125 -15.925781 4.632812 -15.289062 4.09375 -14.40625 L 4.09375 0 L 2 0 L 2 -18.265625 L 3.78125 -18.265625 L 3.890625 -16.0625 C 4.367188 -16.738281 4.921875 -17.328125 5.546875 -17.828125 C 6.179688 -18.335938 6.972656 -18.59375 7.921875 -18.59375 C 8.609375 -18.59375 9.28125 -18.425781 9.9375 -18.09375 C 10.59375 -17.769531 11.078125 -17.109375 11.390625 -16.109375 C 11.867188 -16.847656 12.414062 -17.445312 13.03125 -17.90625 C 13.644531 -18.363281 14.441406 -18.59375 15.421875 -18.59375 Z M 15.421875 -18.59375 "/></g></g></g><g fill="#fe428e" fill-opacity="1"><g transform="translate(128.364277, 56.249999)"><g><path d="M 5.375 -8.265625 C 5.40625 -6.734375 5.679688 -5.476562 6.203125 -4.5 C 6.722656 -3.519531 7.40625 -2.796875 8.25 -2.328125 C 9.09375 -1.867188 10.015625 -1.640625 11.015625 -1.640625 C 11.972656 -1.640625 12.828125 -1.773438 13.578125 -2.046875 C 14.328125 -2.328125 15.113281 -2.753906 15.9375 -3.328125 L 17.0625 -1.703125 C 16.21875 -1.054688 15.265625 -0.550781 14.203125 -0.1875 C 13.140625 0.164062 12.101562 0.34375 11.09375 0.34375 C 9.414062 0.34375 7.972656 -0.046875 6.765625 -0.828125 C 5.566406 -1.617188 4.648438 -2.722656 4.015625 -4.140625 C 3.378906 -5.566406 3.0625 -7.222656 3.0625 -9.109375 C 3.0625 -10.972656 3.382812 -12.617188 4.03125 -14.046875 C 4.6875 -15.472656 5.585938 -16.585938 6.734375 -17.390625 C 7.890625 -18.191406 9.234375 -18.59375 10.765625 -18.59375 C 12.253906 -18.59375 13.523438 -18.234375 14.578125 -17.515625 C 15.628906 -16.796875 16.4375 -15.773438 17 -14.453125 C 17.5625 -13.140625 17.84375 -11.578125 17.84375 -9.765625 C 17.84375 -9.453125 17.835938 -9.171875 17.828125 -8.921875 C 17.816406 -8.671875 17.804688 -8.453125 17.796875 -8.265625 Z M 10.828125 -16.578125 C 9.347656 -16.578125 8.109375 -16.054688 7.109375 -15.015625 C 6.109375 -13.972656 5.539062 -12.375 5.40625 -10.21875 L 15.796875 -10.21875 C 15.753906 -12.363281 15.273438 -13.957031 14.359375 -15 C 13.441406 -16.050781 12.265625 -16.578125 10.828125 -16.578125 Z M 10.828125 -16.578125 "/></g></g></g><g fill="#fe428e" fill-opacity="1"><g transform="translate(149.232932, 56.249999)"><g><path d="M 10.4375 -5.296875 C 11.15625 -5.296875 11.753906 -5.050781 12.234375 -4.5625 C 12.722656 -4.070312 12.96875 -3.484375 12.96875 -2.796875 C 12.96875 -2.460938 12.941406 -2.117188 12.890625 -1.765625 C 12.835938 -1.410156 12.71875 -1.046875 12.53125 -0.671875 L 9.625 6 L 7.296875 6 L 8.921875 -0.71875 C 8.628906 -0.945312 8.394531 -1.242188 8.21875 -1.609375 C 8.039062 -1.984375 7.953125 -2.378906 7.953125 -2.796875 C 7.953125 -3.484375 8.1875 -4.070312 8.65625 -4.5625 C 9.132812 -5.050781 9.726562 -5.296875 10.4375 -5.296875 Z M 10.4375 -5.296875 "/></g></g></g><g fill="#fe428e" fill-opacity="1"><g transform="translate(170.101587, 56.249999)"><g/></g></g><g fill="#fe428e" fill-opacity="1"><g transform="translate(190.970242, 56.249999)"><g><path d="M 20.640625 -23.90625 L 16.734375 0 L 13.359375 0 L 10.3125 -18.328125 L 7.3125 0 L 3.828125 0 L 0.25 -23.90625 L 2.578125 -23.90625 L 5.65625 -2.859375 L 8.78125 -21.125 L 12.125 -21.125 L 15.125 -2.859375 L 18.484375 -23.90625 Z M 20.640625 -23.90625 "/></g></g></g><g fill="#fe428e" fill-opacity="1"><g transform="translate(211.838897, 56.249999)"><g><path d="M 10.484375 -18.59375 C 12.160156 -18.59375 13.554688 -18.203125 14.671875 -17.421875 C 15.785156 -16.648438 16.613281 -15.554688 17.15625 -14.140625 C 17.707031 -12.722656 17.984375 -11.054688 17.984375 -9.140625 C 17.984375 -7.328125 17.695312 -5.707031 17.125 -4.28125 C 16.5625 -2.851562 15.71875 -1.722656 14.59375 -0.890625 C 13.476562 -0.0664062 12.09375 0.34375 10.4375 0.34375 C 8.769531 0.34375 7.375 -0.0507812 6.25 -0.84375 C 5.132812 -1.632812 4.296875 -2.738281 3.734375 -4.15625 C 3.171875 -5.582031 2.890625 -7.226562 2.890625 -9.09375 C 2.890625 -10.96875 3.171875 -12.617188 3.734375 -14.046875 C 4.304688 -15.472656 5.15625 -16.585938 6.28125 -17.390625 C 7.414062 -18.191406 8.816406 -18.59375 10.484375 -18.59375 Z M 10.484375 -16.703125 C 8.773438 -16.703125 7.472656 -16.082031 6.578125 -14.84375 C 5.691406 -13.601562 5.25 -11.6875 5.25 -9.09375 C 5.25 -6.570312 5.679688 -4.6875 6.546875 -3.4375 C 7.421875 -2.1875 8.71875 -1.5625 10.4375 -1.5625 C 12.15625 -1.5625 13.445312 -2.1875 14.3125 -3.4375 C 15.1875 -4.6875 15.625 -6.585938 15.625 -9.140625 C 15.625 -11.703125 15.191406 -13.601562 14.328125 -14.84375 C 13.460938 -16.082031 12.179688 -16.703125 10.484375 -16.703125 Z M 10.484375 -16.703125 "/></g></g></g><g fill="#fe428e" fill-opacity="1"><g transform="translate(232.707541, 56.249999)"><g><path d="M 3.984375 0 L 3.984375 -1.8125 L 6.953125 -1.8125 L 6.953125 -16.4375 L 3.984375 -16.4375 L 3.984375 -18.265625 L 8.609375 -18.265625 L 9.015625 -13.890625 C 9.734375 -15.367188 10.59375 -16.53125 11.59375 -17.375 C 12.59375 -18.21875 13.945312 -18.640625 15.65625 -18.640625 C 16.132812 -18.640625 16.5625 -18.601562 16.9375 -18.53125 C 17.3125 -18.457031 17.707031 -18.367188 18.125 -18.265625 L 17.515625 -16.234375 C 17.109375 -16.347656 16.75 -16.429688 16.4375 -16.484375 C 16.132812 -16.535156 15.785156 -16.5625 15.390625 -16.5625 C 13.921875 -16.5625 12.671875 -16.054688 11.640625 -15.046875 C 10.609375 -14.046875 9.765625 -12.460938 9.109375 -10.296875 L 9.109375 -1.8125 L 12.875 -1.8125 L 12.875 0 Z M 15.796875 -12.53125 L 15.796875 -16.09375 L 15.9375 -18.265625 L 18.125 -18.265625 L 17.890625 -12.53125 Z M 15.796875 -12.53125 "/></g></g></g><g fill="#fe428e" fill-opacity="1"><g transform="translate(253.576207, 56.249999)"><g><path d="M 10.203125 -25.65625 L 10.203125 -4.140625 C 10.203125 -3.191406 10.503906 -2.519531 11.109375 -2.125 C 11.710938 -1.726562 12.484375 -1.53125 13.421875 -1.53125 C 13.992188 -1.53125 14.535156 -1.585938 15.046875 -1.703125 C 15.566406 -1.816406 16.097656 -1.976562 16.640625 -2.1875 L 17.265625 -0.515625 C 16.804688 -0.296875 16.226562 -0.0976562 15.53125 0.078125 C 14.84375 0.253906 14.066406 0.34375 13.203125 0.34375 C 11.765625 0.34375 10.539062 -0.046875 9.53125 -0.828125 C 8.53125 -1.609375 8.03125 -2.710938 8.03125 -4.140625 L 8.03125 -23.78125 L 2.359375 -23.78125 L 2.359375 -25.65625 Z M 10.203125 -25.65625 "/></g></g></g><g fill="#fe428e" fill-opacity="1"><g transform="translate(274.444874, 56.249999)"><g><path d="M 14.90625 -25.953125 L 17.0625 -25.65625 L 17.0625 0 L 15.1875 0 L 14.90625 -2.515625 C 14.175781 -1.472656 13.363281 -0.734375 12.46875 -0.296875 C 11.570312 0.128906 10.644531 0.34375 9.6875 0.34375 C 8.070312 0.34375 6.742188 -0.0507812 5.703125 -0.84375 C 4.671875 -1.632812 3.90625 -2.738281 3.40625 -4.15625 C 2.90625 -5.582031 2.65625 -7.222656 2.65625 -9.078125 C 2.65625 -10.898438 2.9375 -12.523438 3.5 -13.953125 C 4.0625 -15.390625 4.875 -16.519531 5.9375 -17.34375 C 7 -18.175781 8.285156 -18.59375 9.796875 -18.59375 C 10.910156 -18.59375 11.882812 -18.398438 12.71875 -18.015625 C 13.550781 -17.628906 14.28125 -17.054688 14.90625 -16.296875 Z M 10.328125 -16.734375 C 8.640625 -16.734375 7.34375 -16.09375 6.4375 -14.8125 C 5.539062 -13.53125 5.09375 -11.625 5.09375 -9.09375 C 5.09375 -7.5 5.273438 -6.132812 5.640625 -5 C 6.003906 -3.875 6.546875 -3.015625 7.265625 -2.421875 C 7.984375 -1.828125 8.882812 -1.53125 9.96875 -1.53125 C 11.125 -1.53125 12.101562 -1.851562 12.90625 -2.5 C 13.71875 -3.15625 14.382812 -3.867188 14.90625 -4.640625 L 14.90625 -14.140625 C 14.375 -14.960938 13.707031 -15.597656 12.90625 -16.046875 C 12.113281 -16.503906 11.253906 -16.734375 10.328125 -16.734375 Z M 10.328125 -16.734375 "/></g></g></g><g fill="#fe428e" fill-opacity="1"><g transform="translate(295.31354, 56.249999)"><g><path d="M 11.59375 -23.90625 L 11.390625 -7.609375 L 9.3125 -7.609375 L 9.078125 -23.90625 Z M 10.390625 -3.828125 C 11.003906 -3.828125 11.507812 -3.625 11.90625 -3.21875 C 12.3125 -2.820312 12.515625 -2.34375 12.515625 -1.78125 C 12.515625 -1.1875 12.3125 -0.679688 11.90625 -0.265625 C 11.507812 0.140625 11.003906 0.34375 10.390625 0.34375 C 9.796875 0.34375 9.300781 0.140625 8.90625 -0.265625 C 8.519531 -0.679688 8.328125 -1.1875 8.328125 -1.78125 C 8.328125 -2.34375 8.519531 -2.820312 8.90625 -3.21875 C 9.300781 -3.625 9.796875 -3.828125 10.390625 -3.828125 Z M 10.390625 -3.828125 "/></g></g></g><g fill="#fe428e" fill-opacity="1"><g transform="translate(316.182207, 56.249999)"><g/></g></g><g fill="#fe428e" fill-opacity="1"><g transform="translate(337.050873, 56.249999)"><g/></g></g></svg>